# xmcd
#
# Track frame offsets:
#	150
#	16862
#	31721
#	48447
#	64274
#	78179
#	94664
#	103967
#	119120
#	129038
#	144779
#	157314
#	174700
#	198344
#	210006
#	217620
#	227610
#	240463
#	260198
#	277955
#
# Disc length: 3879 seconds
#
# Revision: 1
# Processed by: cddbd v1.5.1PL0 Copyright (c) Steve Scherf et al.
# Submitted via: EasyCDDAExtractor 7.0.5.4
#
DISCID=090f2514
DTITLE=Marcelo D2 - As 20 Mais
DYEAR=2004
DGENRE=Pop
TTITLE0=Qual É ?
TTITLE1=Mantenha o Respeito
TTITLE2=Eu Tiro É Onda
TTITLE3=Loadeando
TTITLE4=A Procura Da Batida Perfeita
TTITLE5=1.967
TTITLE6=Eu Tive Um Sonho
TTITLE7=Profissão MC
TTITLE8=Baseado Em Fatos Reais
TTITLE9=Vai Vendo
TTITLE10=Sangue Bom
TTITLE11=Pilotando O Bonde Da Excursão
TTITLE12=O Império Contra Ataca
TTITLE13=Sessão
TTITLE14=Fazendo Efeito
TTITLE15=Batidas E Levadas
TTITLE16=A Batucada
TTITLE17=A Maldição Do Samba
TTITLE18=Re-Batucada
TTITLE19=Samba De Primeira
EXTD=
EXTT0=
EXTT1=
EXTT2=
EXTT3=
EXTT4=
EXTT5=
EXTT6=
EXTT7=
EXTT8=
EXTT9=
EXTT10=
EXTT11=
EXTT12=
EXTT13=
EXTT14=
EXTT15=
EXTT16=
EXTT17=
EXTT18=
EXTT19=
PLAYORDER=
